PathFileType	4	(X/Y/Z)	 s07c0303.trc
DataRate	CameraRate	NumFrames	NumMarkers	Units	OrigDataRate	OrigDataStartFrame	OrigNumFrames
200	200	4	48	mm	200	1001	2000
Frame#	Time	racr			lacr			c7			jug			rlel			rdr			llel			ldr			s2			lic			ric			lasi			rasi			rpsi			lpsi			rgt			lgt			rth1			rth2			rth3			rth4			rlfc			rmfc			rsh1			rsh2			rsh3			rsh4			rlmal			rcal			rtoe			rmt5			lth1			lth2			lth4			lth3			llfc			lmfc			lsh1			lsh2			lsh3			lsh4			llmal			lcal			ltoe			lmt5			SBIKE			LBIKE			RBIKE			
		X1	Y1	Z1	X2	Y2	Z2	X3	Y3	Z3	X4	Y4	Z4	X5	Y5	Z5	X6	Y6	Z6	X7	Y7	Z7	X8	Y8	Z8	X9	Y9	Z9	X10	Y10	Z10	X11	Y11	Z11	X12	Y12	Z12	X13	Y13	Z13	X14	Y14	Z14	X15	Y15	Z15	X16	Y16	Z16	X17	Y17	Z17	X18	Y18	Z18	X19	Y19	Z19	X20	Y20	Z20	X21	Y21	Z21	X22	Y22	Z22	X23	Y23	Z23	X24	Y24	Z24	X25	Y25	Z25	X26	Y26	Z26	X27	Y27	Z27	X28	Y28	Z28	X29	Y29	Z29	X30	Y30	Z30	X31	Y31	Z31	X32	Y32	Z32	X33	Y33	Z33	X34	Y34	Z34	X35	Y35	Z35	X36	Y36	Z36	X37	Y37	Z37	X38	Y38	Z38	X39	Y39	Z39	X40	Y40	Z40	X41	Y41	Z41	X42	Y42	Z42	X43	Y43	Z43	X44	Y44	Z44	X45	Y45	Z45	X46	Y46	Z46	X47	Y47	Z47	X48	Y48	Z48	
1001	5.0050	794.942893	1426.051070	-116.924137	776.512047	1381.530526	-422.827848	781.331719	1459.793385	-276.791010	721.770271	1313.069407	-259.749246	613.154171	1152.783404	41.396031	730.900759	908.684550	-52.859505	546.790335	1113.785511	-521.074530	724.927708	917.944229	-404.270122	182.756047	1284.639672	-191.947968	301.243790	1299.850699	-347.631136	379.165748	1298.321643	-80.090424	336.668956	1228.779933	-343.164793	382.521604	1240.786990	-97.474568	225.209996	1318.740484	-149.033966	215.635903	1326.835431	-255.809881	315.399525	1171.065027	-25.082643	233.060839	1164.065579	-371.743668	413.225320	1041.806364	-48.879746	470.385443	978.319890	-70.506218	494.160022	896.511247	-73.550085	495.176043	995.479656	-92.033572	516.791343	767.211490	-113.442883	488.689969	764.451188	-215.686032	384.956591	712.267631	-83.934721	315.802330	658.616471	-94.847472	229.848802	643.233525	-85.873451	322.191893	642.211462	-133.071545	101.772653	591.109669	-78.018816	23.920262	593.769806	-92.948053	168.565794	365.041011	-123.055155	101.872803	413.806389	-52.697895	263.766171	1044.296483	-388.785427	313.260779	971.632734	-398.547455	347.867457	983.375635	-397.027986	321.323825	883.368228	-395.321711	377.604379	717.209693	-376.965151	376.444598	695.926809	-286.700945	314.233893	583.626079	-399.365970	307.088370	498.940715	-382.364031	255.580175	424.549083	-386.923865	313.629924	499.556537	-340.024058	199.444053	301.716486	-385.160414	124.351323	273.195385	-352.874923	408.088677	207.877873	-358.496730	322.405366	197.039670	-421.759496	-256.465812	964.708385	-232.449468	-75.940607	83.295403	-436.400544	-81.905997	79.703513	-38.913318	
1002	5.0100	793.574421	1427.675076	-112.458945	778.657085	1383.192776	-418.162768	781.567310	1461.677713	-272.427416	722.029914	1314.729281	-255.962527	612.001148	1152.444812	42.282875	730.704506	908.707942	-52.643097	550.511636	1116.426398	-522.763324	725.090820	917.527068	-404.189999	182.696499	1282.390975	-196.611101	304.683509	1296.032417	-349.638296	377.047431	1298.822274	-80.994774	339.777196	1224.746915	-343.915520	381.199657	1241.231697	-97.740224	224.172142	1317.020329	-153.535153	216.887696	1323.660201	-260.700963	313.420340	1172.222818	-25.541547	236.219389	1159.885157	-373.184386	414.164304	1044.254041	-46.506259	472.410753	981.734680	-67.688626	497.267886	900.217867	-71.027679	497.481524	999.470920	-88.664759	523.403593	772.094398	-110.778530	496.936255	768.981054	-213.359501	391.648657	717.688530	-82.547306	322.155427	664.500191	-94.127304	236.145199	649.643859	-85.658546	328.748770	647.889186	-132.071791	108.069479	598.244132	-78.426825	30.194115	601.117154	-93.217026	176.057488	372.702950	-124.571260	110.124372	421.866590	-52.729059	263.822953	1039.826800	-389.662494	311.065267	965.446796	-398.167929	346.081697	976.069092	-395.934048	316.229656	877.512197	-394.925509	367.313740	710.237696	-374.642693	364.416701	689.617220	-285.055007	304.579625	576.657549	-397.285618	297.979974	492.140941	-380.914110	246.987444	417.440319	-386.080262	304.226977	493.544374	-339.218584	191.308633	294.723501	-384.895135	116.468747	266.362901	-352.793210	400.058973	200.206102	-358.302928	314.339111	189.729248	-421.434895	-256.650353	964.638504	-232.494055	-75.962887	83.300915	-436.384453	-81.935957	79.663277	-38.903535	
1003	5.0150	791.947064	1429.432785	-107.636633	780.727427	1385.122030	-413.366843	781.708104	1463.920590	-267.650797	722.005886	1316.799825	-252.001575	610.667628	1152.140775	43.204090	730.576059	908.758841	-52.398922	554.779250	1119.185021	-524.365957	725.371515	917.125974	-404.152053	182.766262	1280.062078	-201.201276	308.317789	1292.398769	-351.576541	374.930842	1299.424646	-82.010222	343.001088	1220.670372	-344.705017	380.241054	1242.404633	-97.006420	222.802206	1315.535859	-157.677804	218.247500	1320.696810	-265.246478	311.322320	1173.446571	-26.088674	239.400317	1155.697825	-374.668418	414.613857	1046.844575	-44.197126	473.931202	985.446124	-64.023793	500.283420	903.941633	-68.461573	499.113348	1003.548222	-85.409968	530.295009	777.303808	-107.754893	505.445220	773.938555	-210.750778	398.780071	723.077510	-80.880158	329.191703	670.069600	-93.170643	242.970922	655.542278	-85.354197	334.185193	652.896785	-132.804463	115.251620	604.628920	-78.679094	37.298144	607.642373	-93.263695	185.407582	380.574676	-124.329503	118.927027	428.960324	-52.896519	263.874310	1035.471159	-390.553642	308.830023	959.631050	-397.851381	344.091753	969.019307	-394.864609	307.986745	865.335726	-381.965773	356.559152	704.258138	-372.512481	350.406161	684.251888	-283.078640	294.534933	570.656031	-395.956622	288.403982	486.153240	-379.761331	237.994107	411.156350	-385.430237	294.091253	487.401177	-338.202123	182.983473	288.142684	-384.645655	108.363025	260.411841	-352.666344	391.719333	192.825958	-358.183643	305.872424	182.910514	-421.202793	-256.782091	964.546538	-232.481901	-75.947720	83.289509	-436.346056	-81.943390	79.620306	-38.889446	
1004	5.0200	790.096134	1431.320802	-102.486714	782.704428	1387.385066	-408.440290	781.737191	1466.346655	-262.570444	721.775266	1319.088517	-247.807924	609.278977	1151.780566	44.085108	730.576247	908.903954	-52.118315	559.542723	1122.026366	-525.825230	725.782189	916.753846	-404.181816	182.944167	1277.849955	-206.162065	312.097391	1288.667237	-353.418457	372.778722	1300.128922	-83.049731	346.166110	1216.745508	-345.397484	378.693563	1243.102009	-97.250465	220.305617	1314.668835	-160.664075	219.692558	1317.717981	-269.848585	309.081737	1174.552276	-26.850319	242.468212	1151.476714	-376.039795	414.743257	1049.532455	-42.024981	475.022065	989.370746	-61.309276	503.388612	908.214546	-65.629940	500.224513	1007.911361	-82.423402	537.469480	782.646528	-104.459995	514.201630	779.389699	-207.975110	406.366280	728.355435	-78.956860	336.717092	675.538766	-91.905832	250.426898	660.875519	-84.778769	344.626718	658.928758	-129.432535	123.068155	610.562904	-78.619555	48.074136	617.107488	-96.250039	197.549676	388.825820	-122.146409	128.171766	435.694406	-52.849485	263.748058	1031.496027	-391.619758	306.146782	954.390828	-398.011563	341.884930	962.446237	-393.937434	303.700148	863.658112	-388.723632	345.503358	698.935537	-370.912326	336.399617	679.745627	-282.190095	284.017177	565.527056	-394.993215	278.545381	481.083759	-379.000805	228.695239	405.695359	-384.864801	284.070423	482.346585	-337.274084	174.644233	282.336652	-384.362237	100.077275	255.300868	-352.519950	383.039165	185.829251	-357.990031	296.875812	176.656664	-421.094591	-256.774282	964.535432	-232.348110	-75.946583	83.308278	-436.312611	-81.963942	79.577619	-38.888651	
